<svg xmlns="http://www.w3.org/2000/svg" width="199" height="76" viewBox="0 0 199 76">
  <path id="injazz_17_22_23_June_-_Rotterdam" data-name="injazz ,17 22 &amp; 23 June - Rotterdam" d="M3.026,5.195a2.64,2.64,0,0,1,5.28,0A2.641,2.641,0,0,1,3.026,5.195Zm0.36,26.279V14.555h4.5V31.474a2.7,2.7,0,0,0,2.7,2.76v4.5A7.234,7.234,0,0,1,3.386,31.474Zm12,7.08v-24h7.26a7.234,7.234,0,0,1,7.2,7.26V38.554h-4.5V21.814a2.74,2.74,0,0,0-2.7-2.76h-2.76v19.5h-4.5Zm21-33.359a2.64,2.64,0,0,1,5.28,0A2.641,2.641,0,0,1,36.385,5.195Zm-2.34,43.558a7.246,7.246,0,0,0,7.26-7.26V14.555h-4.5V41.493a2.716,2.716,0,0,1-2.76,2.76v4.5ZM46.465,31.834a7.26,7.26,0,1,0,14.519,0v-9.96a7.376,7.376,0,0,0-7.26-7.32h-5.04v4.5h5.04a2.88,2.88,0,0,1,2.76,2.82v2.76l-2.76-.06A7.285,7.285,0,0,0,46.465,31.834Zm4.5,0a2.738,2.738,0,0,1,2.76-2.7h2.76v2.7A2.76,2.76,0,1,1,50.964,31.834ZM80.3,14.555H68v4.5h7.8v2.76l-2.76,2.28h-1.92l-5.34,5.34v9.12H78.024v-4.5h-7.74v-2.76l2.76-2.7H74.9l5.4-5.4v-8.64Zm17.519,8.64v-8.64H85.583v4.5h7.74v2.22l-2.76,2.76H83.3v9.18l5.34,5.34h6.9v-4.5h-4.98l-2.76-2.76v-2.76h4.62Zm12.3-2.121v-4.5a2.753,2.753,0,0,0,2.76-2.76h4.5A7.247,7.247,0,0,1,110.124,21.073Zm12.059,17.48h4.5v-24h-4.5v24Zm9.3,0h4.5v-6.72l2.76-2.76h1.86l5.4-5.34-0.06-9.18H133.7v4.5h7.8v2.76l-2.76,2.76h-1.92l-5.34,5.34v8.64Zm-129.717,30h6.12V66.3H4.016v-1.23a1.4,1.4,0,0,1,1.38-1.38h0.93L9,61.024v-0.93a3.615,3.615,0,1,0-7.23,0h2.25a1.365,1.365,0,1,1,2.73,0L5.4,61.444a3.681,3.681,0,0,0-3.63,3.63v3.48Zm9.63,0h6.12V66.3h-3.87v-1.23a1.4,1.4,0,0,1,1.38-1.38h0.93l2.67-2.67v-0.93a3.615,3.615,0,1,0-7.23,0h2.25a1.365,1.365,0,1,1,2.73,0l-1.35,1.35a3.681,3.681,0,0,0-3.63,3.63v3.48Zm13.38-3.51a3.63,3.63,0,1,0,7.26,0v-1.38h1.35v-2.25h-4.98v0.03a1.416,1.416,0,0,1-1.38-1.38,1.38,1.38,0,1,1,2.76,0h2.25a3.63,3.63,0,1,0-7.26,0,3.705,3.705,0,0,0,.99,2.49A3.706,3.706,0,0,0,24.776,65.044Zm2.25,0a1.37,1.37,0,0,1,1.38-1.35v-0.03h1.38v1.38A1.38,1.38,0,1,1,27.026,65.044Zm12.51,3.51h6.12V66.3h-3.87v-1.23a1.4,1.4,0,0,1,1.38-1.38H44.1l2.67-2.67v-0.93a3.615,3.615,0,1,0-7.23,0h2.25a1.365,1.365,0,1,1,2.73,0l-1.35,1.35a3.682,3.682,0,0,0-3.63,3.63v3.48Zm9.63-3.51a3.63,3.63,0,1,0,7.26,0,3.706,3.706,0,0,0-.99-2.49,3.705,3.705,0,0,0,.99-2.49,3.615,3.615,0,1,0-7.23,0h2.25a1.365,1.365,0,1,1,1.35,1.35v2.25a1.376,1.376,0,0,1,1.38,1.38,1.358,1.358,0,0,1-1.38,1.38,1.376,1.376,0,0,1-1.38-1.38h-2.25Zm13.41,5.88a3.615,3.615,0,1,0,7.23,0V56.554h-7.23V58.8h4.98v12.12a1.365,1.365,0,1,1-2.73,0h-2.25Zm16.89-2.37v-12h-2.25V66.3h-1.38a1.37,1.37,0,0,1-1.38-1.35l0.03-8.4h-2.25l-0.03,8.4a3.636,3.636,0,0,0,3.63,3.6h3.63Zm2.4,0v-12h3.63a3.617,3.617,0,0,1,3.6,3.63v8.37h-2.25v-8.37a1.37,1.37,0,0,0-1.35-1.38h-1.38v9.75h-2.25Zm16.86-5.01,0.03-3.6a3.63,3.63,0,1,0-7.26,0v4.98a3.623,3.623,0,0,0,3.63,3.63h2.49V66.3h-2.49a1.376,1.376,0,0,1-1.38-1.38v-1.38h4.98Zm-4.98-3.63a1.37,1.37,0,0,1,1.38-1.35,1.333,1.333,0,0,1,1.35,1.38v1.35h-2.73v-1.38Zm11.76,2.25h5.01v-2.25h-5.01v2.25Zm11.759,6.39h2.25v-3.87h1.38l1.35,1.38v2.49h2.25l0.03-3.45-1.29-1.29a3.615,3.615,0,0,0,1.29-2.76v-6.9a3.656,3.656,0,0,0-3.63-3.6h-3.63v18Zm2.25-6.12V52.8h1.38a1.37,1.37,0,0,1,1.38,1.35v6.9a1.4,1.4,0,0,1-1.38,1.38h-1.38Zm10.74,1.23a3.615,3.615,0,1,0-3.63-3.6A3.636,3.636,0,0,0,130.254,63.664Zm0-2.25a1.365,1.365,0,1,1,1.38-1.35A1.37,1.37,0,0,1,130.254,61.414Zm9.36,7.2v-2.25a1.376,1.376,0,0,1-1.38-1.38V58.8h2.819v6.18a3.623,3.623,0,0,0,3.63,3.63v-2.25a1.376,1.376,0,0,1-1.38-1.38V58.8h1.38v-2.25H143.3v-6h-2.25v6h-2.819v-6h-2.25V64.984A3.623,3.623,0,0,0,139.614,68.614Zm14.7-5.07,0.03-3.6a3.63,3.63,0,1,0-7.259,0v4.98a3.622,3.622,0,0,0,3.629,3.63h2.49V66.3h-2.49a1.376,1.376,0,0,1-1.38-1.38v-1.38h4.98Zm-4.98-3.63a1.37,1.37,0,0,1,1.38-1.35,1.333,1.333,0,0,1,1.35,1.38v1.35h-2.73v-1.38Zm7.41,8.64h2.25v-8.37a1.376,1.376,0,0,1,1.38-1.38,1.4,1.4,0,0,1,1.38,1.38H164a3.642,3.642,0,0,0-3.63-3.63,1.358,1.358,0,0,1-1.38-1.38h-2.25a3.723,3.723,0,0,0,.99,2.52,3.592,3.592,0,0,0-.99,2.49v8.37Zm9.06-3.63a3.623,3.623,0,0,0,3.63,3.63h3.63v-18h-2.25v6h-1.38a3.617,3.617,0,0,0-3.63,3.6v4.77Zm2.25,0v-4.77a1.37,1.37,0,0,1,1.38-1.35h1.38v7.5h-1.38A1.376,1.376,0,0,1,168.053,64.924Zm7.41,0.27a3.63,3.63,0,1,0,7.259,0v-4.98a3.688,3.688,0,0,0-3.63-3.66h-2.519V58.8h2.519a1.44,1.44,0,0,1,1.38,1.41v1.38l-1.38-.03A3.642,3.642,0,0,0,175.463,65.194Zm2.25,0a1.369,1.369,0,0,1,1.379-1.35h1.38v1.35A1.38,1.38,0,1,1,177.713,65.194Zm7.409,3.36h2.25V58.8h1.53a1.4,1.4,0,0,1,1.38,1.38l-0.03,8.37h2.25v-8.37a1.422,1.422,0,0,1,1.41-1.38,1.37,1.37,0,0,1,1.35,1.38v8.37h2.25v-8.37a3.617,3.617,0,0,0-3.6-3.63,3.723,3.723,0,0,0-2.52.99,3.705,3.705,0,0,0-2.49-.99h-3.78v12Z"/>
</svg>
