<svg xmlns="http://www.w3.org/2000/svg" viewBox="0 0 90.08 90.08"><path d="M45,90.08a45,45,0,1,1,45-45A45.09,45.09,0,0,1,45,90.08ZM45,3.5A41.54,41.54,0,1,0,86.58,45,41.59,41.59,0,0,0,45,3.5Z"/><path class="cls-1" d="M17.79,19h5.29a5.18,5.18,0,0,1,3.48,1.38A5.21,5.21,0,0,1,30.08,19a5.06,5.06,0,0,1,5,5.08v11.7H32V24a1.92,1.92,0,0,0-1.89-1.93,2,2,0,0,0-2,1.93v11.7H25L25,24a2,2,0,0,0-1.93-1.93H20.94V35.73H17.79V19Z"/><path class="cls-1" d="M38.47,19h3.15V29.48a1.92,1.92,0,0,0,1.93,1.89h1.93V19h3.15V37.79a5.09,5.09,0,0,1-5.08,5.08V39.72a1.92,1.92,0,0,0,1.93-1.93V34.52H43.54a5.06,5.06,0,0,1-5.08-5V19Z"/><path class="cls-1" d="M12.59,42.12a1.85,1.85,0,0,1,3.69,0A1.85,1.85,0,0,1,12.59,42.12Zm0.25,18.37V48.67H16V60.49a1.89,1.89,0,0,0,1.89,1.93v3.15A5.06,5.06,0,0,1,12.84,60.49Z"/><path class="cls-1" d="M21.23,65.44V48.67H26.3a5.06,5.06,0,0,1,5,5.08v11.7H28.19V53.74a1.92,1.92,0,0,0-1.89-1.93H24.38V65.44H21.23Z"/><path class="cls-1" d="M34.27,69.43A1.9,1.9,0,0,0,36.2,67.5V48.67h3.15V67.5a5.07,5.07,0,0,1-5.08,5.08V69.43Zm3.48-25.5a1.83,1.83,0,0,0,1.85-1.8,1.85,1.85,0,0,0-3.69,0A1.83,1.83,0,0,0,37.76,43.93Z"/><path class="cls-1" d="M48,55.67l1.93,0V53.78a2,2,0,0,0-1.93-2H44.51V48.67H48a5.16,5.16,0,0,1,5.08,5.12v7A5.08,5.08,0,1,1,48,55.67Zm0,7A1.92,1.92,0,0,0,50,60.75V58.86H48A1.91,1.91,0,1,0,48,62.68Z"/><path d="M66.61,54.71l-3.78,3.78h-1.3l-1.93,1.89V62.3H65v3.15H56.46V59.07l3.73-3.73h1.34l1.93-1.59V51.81H58V48.67h8.6v6Zm8.47,3.73H71.86v1.93l1.93,1.93h3.48v3.15H72.44l-3.73-3.73V55.29h5.08l1.93-1.93V51.81H70.3V48.67h8.56v6Z"/></svg>